<mxfile host="65bd71144e">
    <diagram id="xzn3BcnQD69MwN58fCzL" name="第 1 页">
        <mxGraphModel dx="827" dy="456" grid="1" gridSize="10" guides="1" tooltips="1" connect="1" arrows="1" fold="1" page="1" pageScale="1" pageWidth="827" pageHeight="1169" math="0" shadow="0">
            <root>
                <mxCell id="0"/>
                <mxCell id="1" parent="0"/>
                <mxCell id="4" style="edgeStyle=none;html=1;exitX=0.75;exitY=1;exitDx=0;exitDy=0;entryX=0.737;entryY=0.01;entryDx=0;entryDy=0;entryPerimeter=0;" parent="1" source="2" target="3" edge="1">
                    <mxGeometry relative="1" as="geometry"/>
                </mxCell>
                <mxCell id="5" value="登录" style="edgeLabel;html=1;align=center;verticalAlign=middle;resizable=0;points=[];" parent="4" vertex="1" connectable="0">
                    <mxGeometry x="0.1802" relative="1" as="geometry">
                        <mxPoint as="offset"/>
                    </mxGeometry>
                </mxCell>
                <mxCell id="2" value="UI" style="rounded=0;whiteSpace=wrap;html=1;" parent="1" vertex="1">
                    <mxGeometry x="172" y="150" width="440" height="60" as="geometry"/>
                </mxCell>
                <mxCell id="3" value="Vblog API Server" style="rounded=0;whiteSpace=wrap;html=1;" parent="1" vertex="1">
                    <mxGeometry x="172" y="320" width="450" height="100" as="geometry"/>
                </mxCell>
                <mxCell id="6" value="令牌过期" style="text;html=1;strokeColor=none;fillColor=none;align=center;verticalAlign=middle;whiteSpace=wrap;rounded=0;" parent="1" vertex="1">
                    <mxGeometry x="354" y="70" width="60" height="30" as="geometry"/>
                </mxCell>
                <mxCell id="7" value="" style="endArrow=classic;html=1;entryX=0.811;entryY=1.061;entryDx=0;entryDy=0;entryPerimeter=0;" parent="1" target="2" edge="1">
                    <mxGeometry width="50" height="50" relative="1" as="geometry">
                        <mxPoint x="530" y="320" as="sourcePoint"/>
                        <mxPoint x="580" y="270" as="targetPoint"/>
                    </mxGeometry>
                </mxCell>
                <mxCell id="8" value="Token: 过期时间(12h)" style="edgeLabel;html=1;align=center;verticalAlign=middle;resizable=0;points=[];" parent="7" vertex="1" connectable="0">
                    <mxGeometry x="0.1724" y="1" relative="1" as="geometry">
                        <mxPoint x="62" as="offset"/>
                    </mxGeometry>
                </mxCell>
                <mxCell id="9" value="" style="endArrow=classic;html=1;" parent="1" edge="1">
                    <mxGeometry width="50" height="50" relative="1" as="geometry">
                        <mxPoint x="140" y="570" as="sourcePoint"/>
                        <mxPoint x="810" y="570" as="targetPoint"/>
                    </mxGeometry>
                </mxCell>
                <mxCell id="10" value="" style="endArrow=classic;html=1;" parent="1" edge="1">
                    <mxGeometry width="50" height="50" relative="1" as="geometry">
                        <mxPoint x="210" y="710" as="sourcePoint"/>
                        <mxPoint x="210" y="570" as="targetPoint"/>
                    </mxGeometry>
                </mxCell>
                <mxCell id="11" value="颁发令牌" style="edgeLabel;html=1;align=center;verticalAlign=middle;resizable=0;points=[];" parent="10" vertex="1" connectable="0">
                    <mxGeometry x="0.3381" y="1" relative="1" as="geometry">
                        <mxPoint x="31" y="34" as="offset"/>
                    </mxGeometry>
                </mxCell>
                <mxCell id="12" value="l访问令牌有效期" style="endArrow=classic;startArrow=classic;html=1;" parent="1" edge="1">
                    <mxGeometry x="0.0345" y="20" width="50" height="50" relative="1" as="geometry">
                        <mxPoint x="210" y="550" as="sourcePoint"/>
                        <mxPoint x="500" y="550" as="targetPoint"/>
                        <mxPoint as="offset"/>
                    </mxGeometry>
                </mxCell>
                <mxCell id="13" value="12h" style="edgeLabel;html=1;align=center;verticalAlign=middle;resizable=0;points=[];" parent="12" vertex="1" connectable="0">
                    <mxGeometry x="0.1569" y="1" relative="1" as="geometry">
                        <mxPoint x="-24" y="11" as="offset"/>
                    </mxGeometry>
                </mxCell>
                <mxCell id="14" value="访问系统, 刷新后继续访问" style="endArrow=classic;html=1;" parent="1" edge="1">
                    <mxGeometry x="-0.3333" y="70" width="50" height="50" relative="1" as="geometry">
                        <mxPoint x="530" y="450" as="sourcePoint"/>
                        <mxPoint x="530" y="540" as="targetPoint"/>
                        <Array as="points"/>
                        <mxPoint as="offset"/>
                    </mxGeometry>
                </mxCell>
                <mxCell id="15" value="&lt;h1&gt;令牌&lt;/h1&gt;&lt;div&gt;访问令牌:&lt;/div&gt;&lt;div&gt;访问令牌的时效性: 12h&lt;/div&gt;&lt;div&gt;创建时间 Now&lt;/div&gt;&lt;div&gt;过期时间 Now + 12h&lt;/div&gt;&lt;div&gt;&lt;br&gt;&lt;/div&gt;&lt;div&gt;刷新令牌:&amp;nbsp; 当你访问令牌过期了后,&amp;nbsp; 可以使用刷新令牌来获取一个访问令牌&lt;/div&gt;&lt;div&gt;刷新令牌时效性:&amp;nbsp; &amp;nbsp;12h * 4&lt;/div&gt;&lt;div&gt;&lt;div&gt;创建时间 Now&lt;/div&gt;&lt;div&gt;过期时间 Now + 12h * 4&lt;/div&gt;&lt;/div&gt;" style="text;html=1;strokeColor=none;fillColor=none;spacing=5;spacingTop=-20;whiteSpace=wrap;overflow=hidden;rounded=0;" parent="1" vertex="1">
                    <mxGeometry x="210" y="720" width="430" height="190" as="geometry"/>
                </mxCell>
                <mxCell id="16" value="" style="endArrow=classic;html=1;" parent="1" edge="1">
                    <mxGeometry width="50" height="50" relative="1" as="geometry">
                        <mxPoint x="500" y="710" as="sourcePoint"/>
                        <mxPoint x="500" y="570" as="targetPoint"/>
                    </mxGeometry>
                </mxCell>
                <mxCell id="17" value="颁发令牌" style="edgeLabel;html=1;align=center;verticalAlign=middle;resizable=0;points=[];" parent="16" vertex="1" connectable="0">
                    <mxGeometry x="0.3381" y="1" relative="1" as="geometry">
                        <mxPoint x="31" y="34" as="offset"/>
                    </mxGeometry>
                </mxCell>
                <mxCell id="18" value="" style="endArrow=classic;startArrow=classic;html=1;" edge="1" parent="1">
                    <mxGeometry width="50" height="50" relative="1" as="geometry">
                        <mxPoint x="510" y="550" as="sourcePoint"/>
                        <mxPoint x="770" y="550" as="targetPoint"/>
                    </mxGeometry>
                </mxCell>
                <mxCell id="19" value="12h * 3" style="edgeLabel;html=1;align=center;verticalAlign=middle;resizable=0;points=[];" vertex="1" connectable="0" parent="18">
                    <mxGeometry x="0.1569" y="1" relative="1" as="geometry">
                        <mxPoint x="-8" y="11" as="offset"/>
                    </mxGeometry>
                </mxCell>
                <mxCell id="20" value="刷新令牌有效性" style="edgeLabel;html=1;align=center;verticalAlign=middle;resizable=0;points=[];" vertex="1" connectable="0" parent="18">
                    <mxGeometry x="-0.4138" y="1" relative="1" as="geometry">
                        <mxPoint x="65" y="-19" as="offset"/>
                    </mxGeometry>
                </mxCell>
                <mxCell id="21" value="无法刷新 回话中断" style="endArrow=classic;html=1;" edge="1" parent="1">
                    <mxGeometry x="-0.7778" y="-50" width="50" height="50" relative="1" as="geometry">
                        <mxPoint x="790" y="470" as="sourcePoint"/>
                        <mxPoint x="790" y="560" as="targetPoint"/>
                        <Array as="points"/>
                        <mxPoint as="offset"/>
                    </mxGeometry>
                </mxCell>
            </root>
        </mxGraphModel>
    </diagram>
</mxfile>